<?xml version="1.0" encoding="utf-8"?>
<!-- Generator: Adobe Illustrator 22.1.0, SVG Export Plug-In . SVG Version: 6.00 Build 0)  -->
<svg version="1.1" id="Layer_1" xmlns="http://www.w3.org/2000/svg" xmlns:xlink="http://www.w3.org/1999/xlink" x="0px" y="0px"
	 viewBox="0 0 818.7 125.6" style="enable-background:new 0 0 818.7 125.6;" xml:space="preserve">
<style type="text/css">
	.st0{fill:#0E0F15;}
</style>
<g>
	<g>
		<g>
			<path class="st0" d="M6.3,124.9c0,0-7.7-15.4-6-54.9s14.9-52.8,18.4-53.6c13.7-3,52.5-10.3,73.7-14.6c7.7-1.6,14.6-5.1,27,5.6
				c13.8,11.9,69,64.3,69,64.3v5.1L119,17.3c0,0-10.3-10.3-16.3,1.7C98.6,27.4,89.6,47.6,84,54C73.4,66,59.8,75.6,37.5,77.3
				c-14.9,1.1-19.1,1.1-25.3,1.2c-2.6,0-7.6-0.2-8.4,0.4c-1.1,1-1.3,4-1.5,7.2C2.2,89.9,1.1,109.1,6.3,124.9z"/>
		</g>
		<g>
			<path class="st0" d="M98.4,78.2c0,0,2.9-35.3,6-44.6c4.3-12.9,9.4-13.7,19.7-6s64.3,52.3,64.3,52.3v9.4c0,0-38.6-20.6-49.7-26.6
				S101,45.6,98.4,78.2z"/>
		</g>
		<g>
			<polygon class="st0" points="113.8,114 107.6,107.3 98.6,108.6 103.1,100.7 99,92.5 108,94.3 114.5,87.9 115.6,97 123.6,101.2 
				115.4,105 			"/>
		</g>
		<g>
			<polygon class="st0" points="144.3,108.9 139.7,103.9 133,104.9 136.3,98.9 133.3,92.8 139.9,94.2 144.8,89.4 145.6,96.2 
				151.6,99.3 145.5,102.2 			"/>
		</g>
		<g>
			<polygon class="st0" points="166.9,110 163.5,106.4 158.6,107.1 161,102.8 158.8,98.3 163.7,99.3 167.2,95.8 167.8,100.8 
				172.2,103.1 167.7,105.1 			"/>
		</g>
		<g>
			<polygon class="st0" points="182.9,116.8 180.4,114.1 176.8,114.6 178.6,111.4 176.9,108.1 180.5,108.8 183.2,106.3 183.6,109.9 
				186.8,111.6 183.5,113.1 			"/>
		</g>
		<g>
			<polygon class="st0" points="193.8,125.6 192.2,123.9 190,124.3 191.1,122.3 190.1,120.2 192.3,120.7 193.9,119.1 194.2,121.3 
				196.2,122.4 194.1,123.4 			"/>
		</g>
		<g>
			<path class="st0" d="M68.8,124.9c0,0-13.1-14.3-34.6-14.3s-25.4,11.7-28,14.3C29.4,124.9,68.8,124.9,68.8,124.9z"/>
		</g>
		<g>
			<path class="st0" d="M74.8,96.1c0,2.5-2.5,4.8-5.8,5.2c-3.4,0.4-6.2-1.5-6.2-4.2s2.8-5,6.2-5.2C72.3,91.6,74.8,93.6,74.8,96.1z"
				/>
		</g>
		<g>
			<path class="st0" d="M16.3,98.5c0,2.2-2.2,4.2-5,4.5c-2.9,0.3-5.4-1.3-5.4-3.7s2.4-4.3,5.4-4.5C14.1,94.7,16.3,96.4,16.3,98.5z"
				/>
		</g>
	</g>
	<g>
		<path class="st0" d="M300.1,106.9h-15.8l-1.6-8.9l-0.9-3.6l-11.1-0.2l-9.6,0.3l-0.8,2.5l-1.7,9.9h-15.3l20-61.9H282L300.1,106.9z
			 M278.8,82.7l-6-23.5h-1l-7.2,23.5l7.1,0.2L278.8,82.7z"/>
		<path class="st0" d="M341.7,106.9H323L304.8,45h15.8l1.6,9l9.9,38.7h1l11.5-37.8l1.7-9.9h15.3L341.7,106.9z"/>
		<path class="st0" d="M415.8,46.1l-0.9,11.4L402.8,57h-2.7l-0.5,30l0.6,19.9h-15.5l0.9-18.3L385,57h-2.9L370,57.5l-1-1.2l1-11.4
			h44.9L415.8,46.1z"/>
		<path class="st0" d="M473.2,51.9c4.8,5.3,7.2,12.8,7.2,22.5c0,10.6-2.6,18.9-7.9,24.7c-5.2,5.9-12.6,8.8-22.2,8.8
			c-8.8,0-15.5-2.7-20.3-8.1s-7.2-13.1-7.2-23c0-10.5,2.6-18.6,7.8-24.3c5.2-5.7,12.6-8.5,22.1-8.5C461.6,44,468.4,46.7,473.2,51.9z
			 M444.3,58.3c-1.8,1.2-3.1,3.1-3.9,5.8c-0.8,2.7-1.2,6.3-1.2,10.8c0,5.4,0.4,9.7,1.2,12.8c0.8,3.1,2.2,5.3,4,6.7
			c1.8,1.3,4.3,2,7.4,2s5.5-0.6,7.3-1.8c1.8-1.2,3.1-3.1,3.9-5.8c0.8-2.7,1.2-6.4,1.2-11c0-5.4-0.4-9.6-1.2-12.7
			c-0.8-3.1-2.1-5.3-3.9-6.6s-4.3-2-7.5-2C448.5,56.5,446.1,57.1,444.3,58.3z"/>
		<path class="st0" d="M540.1,80c1.9,2.3,2.9,5.4,2.9,9.3c0,6.2-2.5,10.8-7.4,13.8c-5,3-12.3,4.5-22.1,4.5c-6.4,0-12.5-0.2-18.3-0.6
			h-0.1l0.9-18.3L494.9,45l24.4-0.1c6.6,0,11.7,1.3,15.5,4c3.7,2.7,5.6,6.6,5.6,11.6c0,3.3-0.8,6.1-2.4,8.6c-1.6,2.5-4,4.4-7,5.8
			C535.1,75.9,538.1,77.6,540.1,80z M524.3,94.6c1.9-1.4,2.9-3.4,2.9-6c0-2-0.6-3.6-1.8-4.8c-1.2-1.2-3.1-2.1-5.7-2.6l-10.1,0.2
			l-0.1,5.7l0.3,9.3c3.3,0.3,5.5,0.4,6.4,0.4C519.7,96.7,522.4,96,524.3,94.6z M522.1,57.2c-1.6-1-4.6-1.5-8.8-1.5h-3.1l-0.4,15.1
			l8.3,0.4c2.2-0.6,3.8-1.6,4.8-3s1.6-3.2,1.6-5.5C524.5,60,523.7,58.2,522.1,57.2z"/>
		<path class="st0" d="M608.1,76.4l-0.1,8.9c0.1,7.2-2.2,12.8-6.7,16.7c-4.5,3.9-10.9,5.9-19.2,5.9c-8.1,0-14.2-1.9-18.5-5.8
			c-4.3-3.8-6.3-9.3-6.1-16.5l0.2-9.4L557.3,45h15.5l-0.7,38.5c-0.1,4.1,0.8,7.1,2.5,9s4.4,2.9,8.1,2.9c3.7,0,6.4-0.9,8.2-2.8
			s2.6-4.8,2.5-8.7L592.8,45h15.8L608.1,76.4z"/>
		<path class="st0" d="M664.9,47.3l-2.5,13.1l-2.3,0.9c-2.4-1.6-4.9-2.8-7.3-3.7c-2.4-0.9-4.5-1.3-6.3-1.3c-2.1,0-3.8,0.5-5,1.6
			s-1.9,2.3-1.9,3.7c0,1.6,0.8,3,2.4,4.1c1.6,1.1,4,2.4,7.4,4c3.6,1.7,6.5,3.2,8.7,4.6s4.1,3.2,5.8,5.5s2.4,5.1,2.4,8.4
			c0,3.7-1,7.1-3,10.1s-4.9,5.4-8.6,7.2c-3.7,1.8-8,2.6-12.9,2.6c-6.5,0-12.9-1.3-19.2-3.8l2.2-13.9l1.6-1c2.7,2.2,5.6,4,8.8,5.2
			s5.9,1.9,8.2,1.9c2.4,0,4.3-0.5,5.5-1.6s1.9-2.4,1.9-3.8c0-1.7-0.8-3.2-2.4-4.3c-1.6-1.2-4.1-2.5-7.5-4c-3.5-1.6-6.3-3.1-8.5-4.5
			s-4.1-3.2-5.7-5.5c-1.6-2.3-2.4-5.1-2.4-8.4c0-3.8,1-7.2,3-10.2s4.8-5.4,8.4-7.2c3.6-1.7,7.8-2.6,12.4-2.6
			C653.7,44,659.3,45.1,664.9,47.3z"/>
		<path class="st0" d="M688.9,93.7c1.3,1.3,2,3.2,2,5.6c0,2.6-0.7,4.6-2.2,6.1s-3.4,2.3-5.9,2.3c-2.4,0-4.3-0.7-5.6-2
			s-1.9-3.2-1.9-5.7s0.7-4.5,2.2-6c1.4-1.5,3.4-2.3,5.9-2.3C685.7,91.7,687.6,92.4,688.9,93.7z"/>
		<path class="st0" d="M752.1,80c1.9,2.3,2.9,5.4,2.9,9.3c0,6.2-2.5,10.8-7.4,13.8c-5,3-12.3,4.5-22.1,4.5c-6.4,0-12.5-0.2-18.3-0.6
			H707l0.9-18.3L707,45l24.4-0.1c6.6,0,11.7,1.3,15.5,4c3.7,2.7,5.6,6.6,5.6,11.6c0,3.3-0.8,6.1-2.4,8.6c-1.6,2.5-4,4.4-7,5.8
			C747.1,75.9,750.2,77.6,752.1,80z M736.3,94.6c1.9-1.4,2.9-3.4,2.9-6c0-2-0.6-3.6-1.8-4.8c-1.2-1.2-3.1-2.1-5.7-2.6l-10.1,0.2
			l-0.1,5.7l0.3,9.3c3.3,0.3,5.5,0.4,6.4,0.4C731.7,96.7,734.4,96,736.3,94.6z M734.1,57.2c-1.6-1-4.6-1.5-8.8-1.5h-3.1l-0.4,15.1
			l8.3,0.4c2.2-0.6,3.8-1.6,4.8-3s1.6-3.2,1.6-5.5C736.5,60,735.7,58.2,734.1,57.2z"/>
		<path class="st0" d="M796.7,90.1l0.7,16.8h-15.5l0.8-16.8l-0.1-3.4L762.7,45h16.4l1.4,4.6l9,21.6h1.1l10.2-21l1.9-5.2h15.9
			l-21.8,41.4L796.7,90.1z"/>
	</g>
</g>
</svg>
