<svg width="1024" height="1024" viewBox="0 0 1024 1024" fill="none" xmlns="http://www.w3.org/2000/svg">
<rect width="1024" height="1024" fill="white"/>
<path d="M950 379.993H747.262V432.956H888.285V475.937H747.262V581.819H700.376V337.012H950V379.993Z" fill="black"/>
<path d="M654.674 581.816H606.352L606.63 380.407L485.919 547.202L364.443 377.247L364.427 581.816H317.557V337H387.927L485.887 475.451L584.149 337H654.674V581.816Z" fill="black"/>
<path d="M74 581.809H317.567V337.025H74V581.809Z" fill="#AB077E"/>
<path d="M145.52 685.471H135.335L135.344 642.779L109.755 678.141L84.008 642.032V685.471H74.0781V633.592H88.9853L109.746 662.931L130.57 633.592H145.52V685.471Z" fill="black"/>
<path d="M223.091 685.471H212.15L206.298 674.338H172.079L166.234 685.471H155.287L183.029 633.592H195.358L223.091 685.471H223.091ZM201.337 665.23L189.236 642.249L177.057 665.23H201.337Z" fill="black"/>
<path d="M292.801 685.471H281.418L268.087 666.411H242.798V685.471H232.859V633.592H274.013C279.415 633.592 283.721 635.078 286.925 638.061C290.118 641.043 291.719 645.038 291.719 650.037C291.719 658.648 287.5 663.911 279.059 665.816L292.801 685.471ZM272.521 657.296C278.54 657.296 281.545 654.94 281.545 650.214C281.545 645.206 278.341 642.7 271.937 642.7H242.798V657.296H272.52H272.521Z" fill="black"/>
<path d="M368.383 685.471H355.564L331.286 659.185L316.803 669.781V685.471H306.871V633.592H316.803V658.985L351.488 633.592H366.245L338.959 653.462L368.383 685.471Z" fill="black"/>
<path d="M454.892 642.697H411.927V653.928H441.813V663.036H411.927V685.471H401.988V633.592H454.892V642.697Z" fill="black"/>
<path d="M529.57 659.411C529.57 667.908 526.013 674.83 518.889 680.16C512.816 684.723 505.236 687 496.124 687C487.015 687 479.401 684.724 473.282 680.16C466.151 674.878 462.594 667.965 462.594 659.411C462.594 650.971 466.183 644.108 473.36 638.826C479.647 634.155 487.243 631.824 496.124 631.824C504.959 631.824 512.516 634.155 518.804 638.826C525.982 644.162 529.57 651.035 529.57 659.411H529.57ZM519.222 659.363C519.222 654.01 517.069 649.597 512.754 646.14C508.438 642.677 502.886 640.931 496.078 640.931C489.231 640.931 483.63 642.684 479.285 646.181C474.954 649.676 472.786 654.065 472.786 659.363C472.786 664.893 474.907 669.363 479.167 672.772C483.418 676.179 489.057 677.883 496.078 677.883C503.052 677.883 508.651 676.179 512.879 672.772C517.107 669.364 519.222 664.893 519.222 659.363Z" fill="black"/>
<path d="M603.828 685.471H592.445L579.114 666.411H553.834V685.471H543.896V633.592H585.04C590.442 633.592 594.757 635.078 597.952 638.061C601.154 641.043 602.755 645.038 602.755 650.037C602.755 658.648 598.527 663.911 590.089 665.816L603.829 685.471H603.828ZM583.548 657.296C589.567 657.296 592.572 654.94 592.572 650.214C592.572 645.206 589.37 642.7 582.973 642.7H553.834V657.296H583.548H583.548Z" fill="black"/>
<path d="M689.353 685.471H679.17V642.779L653.597 678.141L627.843 642.096V685.471H617.904V633.592H632.821L653.588 662.931L674.405 633.592H689.353V685.471Z" fill="black"/>
<path d="M761.544 685.471H706.738V633.592H759.644V642.7H716.677V653.929H746.556V663.036H716.677V676.364H761.544V685.471Z" fill="black"/>
<path d="M823.64 685.471H774.379V633.592H784.318V676.364H823.64V685.471Z" fill="black"/>
<path d="M883.657 685.471H834.403V633.592H844.335V676.364H883.657V685.471Z" fill="black"/>
<path d="M949.225 685.471H894.419V633.592H947.324V642.7H904.351V653.929H934.239V663.036H904.351V676.364H949.225V685.471Z" fill="black"/>
</svg>
