<?xml version="1.0" standalone="no"?>
<!DOCTYPE svg PUBLIC "-//W3C//DTD SVG 20010904//EN"
 "http://www.w3.org/TR/2001/REC-SVG-20010904/DTD/svg10.dtd">
<svg version="1.0" xmlns="http://www.w3.org/2000/svg"
 width="512.000000pt" height="512.000000pt" viewBox="0 0 512.000000 512.000000"
 preserveAspectRatio="xMidYMid meet">

<g transform="translate(0.000000,512.000000) scale(0.100000,-0.100000)"
fill="#3B82F6" stroke="none">
<path d="M1055 4786 c-137 -32 -218 -77 -320 -180 -129 -130 -185 -265 -185
-443 0 -89 17 -159 374 -1589 411 -1645 380 -1540 472 -1588 39 -21 46 -21
1377 -24 1496 -3 1413 -6 1567 69 162 79 293 244 334 419 20 83 20 217 0 300
-41 175 -172 340 -334 419 -148 72 -127 71 -1032 71 l-806 0 -68 203 c-37 111
-69 208 -72 215 -3 9 95 12 472 12 l476 0 0 210 0 210 -547 2 -546 3 -217 650
c-119 358 -227 670 -240 695 -110 216 -311 346 -550 356 -59 2 -118 -2 -155
-10z m221 -435 c88 -40 71 4 491 -1260 l388 -1166 46 -46 c36 -37 57 -49 98
-58 36 -8 320 -11 927 -11 767 0 879 -2 912 -15 152 -64 171 -273 34 -370
l-44 -30 -1233 -3 -1234 -2 -10 37 c-6 21 -161 643 -346 1383 -356 1425 -345
1372 -305 1450 50 97 173 138 276 91z"/>
<path d="M1710 535 l0 -215 1170 0 1170 0 0 215 0 215 -1170 0 -1170 0 0 -215z"/>
</g>
</svg>
